<svg width="100%" height="300px" version="1.1" xmlns="http://www.w3.org/2000/svg">
        <!-- Sky-->
        <rect width="100%" height="100%" fill="#007be7"/>
        <!-- Sun -->
        <circle cx="100%" cy="0%" r="100" fill="yellow" />
        <!-- Clouds -->
        <circle cx="10%" cy="10%" r="6%" fill="white" />
        <circle cx="17%" cy="10%" r="7%" fill="white" />
        <circle cx="5%" cy="12%" r="4%" fill="white" />
        <circle cx="22%" cy="12%" r="5%" fill="white" />
        <circle cx="25%" cy="12%" r="4%" fill="white" />
        <!-- Mountains -->
        <polygon points="300,300 440,100 600,300" fill="#025939"/>
        <polygon points="200,300 340,20 500,300" fill="#025939"/>
        <polygon points="0,300 200,125 400,300" fill="#025939"/>

        <!-- Hills -->
        <circle cx="90%" cy="100%" r="10%" fill="#03A63C" />
        <circle cx="99%" cy="100%" r="10%" fill="#04D939" />
        <circle cx="70%" cy="100%" r="20%" fill="#04D939" />
        <circle cx="50%" cy="100%" r="20%" fill="#03A63C" />
        <circle cx="65%" cy="100%" r="10%" fill="#027333" />
        <circle cx="40%" cy="100%" r="10%" fill="#027333" />
        <circle cx="30%" cy="100%" r="10%" fill="#04D939" />
        <circle cx="20%" cy="100%" r="15%" fill="#03A63C" />
        <circle cx="10%" cy="100%" r="17%" fill="#04D939" />
        <!-- <polygon points="100, 300 440,100 600,300" fill="#A1DD70" /> -->
    </svg>