<?xml version="1.0" encoding="utf-8"?>
<!-- Generator: Adobe Illustrator 28.3.0, SVG Export Plug-In . SVG Version: 6.00 Build 0)  -->
<svg version="1.1" xmlns="http://www.w3.org/2000/svg" xmlns:xlink="http://www.w3.org/1999/xlink" x="0px" y="0px"
	 viewBox="0 0 1000 1000" style="enable-background:new 0 0 1000 1000;" xml:space="preserve">
<style type="text/css">
	.st0{fill:url(#SVGID_1_);}
	.st1{fill:url(#SVGID_00000020356666624524094920000014372797154818278531_);}
	.st2{fill:url(#SVGID_00000062167665015691467530000014782119692687861938_);}
	.st3{fill:url(#SVGID_00000105405968756001785720000000264740885470917813_);}
	.st4{fill:url(#SVGID_00000000941674975241522660000005978440361133016493_);}
	.st5{fill:url(#SVGID_00000022534970978075476390000015693968116071891886_);}
	
		.st6{fill:url(#SVGID_00000158715981095342227430000003367439509634324916_);stroke:#231F20;stroke-linecap:round;stroke-linejoin:round;stroke-miterlimit:10;}
	
		.st7{fill:url(#SVGID_00000001639198577498521720000017089348742844699522_);stroke:#231F20;stroke-linecap:round;stroke-linejoin:round;stroke-miterlimit:10;}
	.st8{fill:#FFE500;stroke:#231F20;stroke-linecap:round;stroke-linejoin:round;stroke-miterlimit:10;}
	
		.st9{fill:url(#SVGID_00000006681301439484158210000010712682448310148502_);stroke:#231F20;stroke-linecap:round;stroke-linejoin:round;stroke-miterlimit:10;}
	.st10{display:none;}
	.st11{fill:none;stroke:#231F20;stroke-width:11;stroke-linecap:round;stroke-linejoin:round;stroke-miterlimit:10;}
	.st12{fill:#231F20;}
</style>
<g id="Color">
	<g id="Background">
		<radialGradient id="SVGID_1_" cx="500" cy="500" r="500" gradientUnits="userSpaceOnUse">
			<stop  offset="0" style="stop-color:#00FBFF"/>
			<stop  offset="0" style="stop-color:#E169FF"/>
			<stop  offset="1" style="stop-color:#00374D"/>
		</radialGradient>
		<rect class="st0" width="1000" height="1000"/>
	</g>
	
		<linearGradient id="SVGID_00000111913885479518577810000012851481862135298696_" gradientUnits="userSpaceOnUse" x1="500" y1="904.47" x2="500" y2="95.53">
		<stop  offset="0" style="stop-color:#00FBFF"/>
		<stop  offset="0" style="stop-color:#E60C00"/>
		<stop  offset="1" style="stop-color:#5600E6"/>
	</linearGradient>
	<path style="fill:url(#SVGID_00000111913885479518577810000012851481862135298696_);" d="M904.47,500
		c0,44.53-7.19,87.37-20.5,127.44c-14.17,42.72-35.27,82.28-61.96,117.34c-15.81,20.76-33.57,39.95-53.03,57.28
		C697.51,865.76,603.27,904.47,500,904.47c-98.97,0-189.63-35.54-259.92-94.58h-0.01c-23.85-20.03-45.36-42.76-64.05-67.73
		c-21.49-28.7-39.25-60.34-52.57-94.21C105.43,602.13,95.53,552.22,95.53,500C95.53,276.62,276.62,95.53,500,95.53
		S904.47,276.62,904.47,500z"/>
	
		<linearGradient id="SVGID_00000147935141874744193170000001870419746813940868_" gradientUnits="userSpaceOnUse" x1="306.21" y1="511.4507" x2="702.26" y2="511.4507">
		<stop  offset="0" style="stop-color:#FFFFFF"/>
		<stop  offset="0" style="stop-color:#FFE200"/>
		<stop  offset="1" style="stop-color:#FF5200"/>
	</linearGradient>
	<path style="fill:url(#SVGID_00000147935141874744193170000001870419746813940868_);" d="M702.26,583.13
		c0,17.19-2.19,33.87-6.31,49.77c-3.1,0.74-6.26,1.48-9.48,2.21c-15.11,2.32-37.96,4.09-64.47-1.32
		c-35.68-7.29-44.92-20.85-75-22.37c-24.25-1.23-32.16,6.88-67.11,15.79c-21.14,5.39-52.6,11.19-93.42,10.53
		c-8.18-0.9-21.12-2.5-36.84-5.27c-16.03-2.82-28.76-5.76-39.23-8.63c-2.75-13.14-4.19-26.75-4.19-40.71
		c0-109.37,88.66-198.02,198.03-198.02C613.6,385.11,702.26,473.76,702.26,583.13z"/>
	
		<linearGradient id="SVGID_00000120543180891678085530000008682483834311734429_" gradientUnits="userSpaceOnUse" x1="123.45" y1="752.2679" x2="883.97" y2="752.2679">
		<stop  offset="0" style="stop-color:#00FBFF"/>
		<stop  offset="0" style="stop-color:#31FFDB"/>
		<stop  offset="1" style="stop-color:#B25AFF"/>
	</linearGradient>
	<path style="fill:url(#SVGID_00000120543180891678085530000008682483834311734429_);" d="M883.97,627.44
		c-14.17,42.72-35.27,82.28-61.96,117.34c-15.81,20.76-33.57,39.95-53.03,57.28C697.51,865.76,603.27,904.47,500,904.47
		c-98.97,0-189.63-35.54-259.92-94.58h-0.01c-23.85-20.03-45.36-42.76-64.05-67.73c-21.49-28.7-39.25-60.34-52.57-94.21
		c3.07-2.26,7.51-5.41,13.02-8.9c11.05-6.98,52.19-32.99,98.69-34.21c28.89-0.76,37.42,8.64,75.24,19
		c10.47,2.87,23.2,5.81,39.23,8.63c15.72,2.77,28.66,4.37,36.84,5.27c40.82,0.66,72.28-5.14,93.42-10.53
		c34.95-8.91,42.86-17.02,67.11-15.79c30.08,1.52,39.32,15.08,75,22.37c26.51,5.41,49.36,3.64,64.47,1.32
		c3.22-0.73,6.38-1.47,9.48-2.21c35.18-8.32,62.99-16.54,82.63-22.79c21.34-6.8,35.82-12.16,55.26-9.22
		C857,604.41,873.96,617.71,883.97,627.44z"/>
	
		<linearGradient id="SVGID_00000162345256859526052160000012311911599400126351_" gradientUnits="userSpaceOnUse" x1="175.95" y1="802.0555" x2="822.01" y2="802.0555">
		<stop  offset="0" style="stop-color:#00FBFF"/>
		<stop  offset="0" style="stop-color:#47B8FF"/>
		<stop  offset="1" style="stop-color:#4641FF"/>
	</linearGradient>
	<path style="fill:url(#SVGID_00000162345256859526052160000012311911599400126351_);" d="M822.01,744.78
		c-15.81,20.76-33.57,39.95-53.03,57.28C697.51,865.76,603.27,904.47,500,904.47c-98.97,0-189.63-35.54-259.92-94.58h-0.01
		c-23.85-20.03-45.36-42.76-64.05-67.73l-0.07-1.79c16.35-13.65,41.58-30.56,75-36.84c43.26-8.14,73.83,6.51,109.21,14.47
		c68.64,15.44,112.52-3.98,172.37-13.16c64.02-9.81,158.77-9.81,289.47,36.84C822,742.71,822.01,743.75,822.01,744.78z"/>
	
		<linearGradient id="SVGID_00000025412270721208071800000009048026137910901633_" gradientUnits="userSpaceOnUse" x1="240.08" y1="841.59" x2="768.98" y2="841.59">
		<stop  offset="0" style="stop-color:#00FBFF"/>
		<stop  offset="0" style="stop-color:#157560"/>
		<stop  offset="1" style="stop-color:#00FBDD"/>
	</linearGradient>
	<path style="fill:url(#SVGID_00000025412270721208071800000009048026137910901633_);" d="M768.98,802.06
		C697.51,865.76,603.27,904.47,500,904.47c-98.97,0-189.63-35.54-259.92-94.58c12.88-8.01,32.45-18.38,57.74-24.86
		c71.62-18.36,134.86,8.36,156.07,16.36C512.36,823.43,607.66,837.6,768.98,802.06z"/>
	
		<linearGradient id="SVGID_00000077289829952790328920000008883660371734838400_" gradientUnits="userSpaceOnUse" x1="500" y1="392.0852" x2="500" y2="95.53">
		<stop  offset="0" style="stop-color:#FFFFFF"/>
		<stop  offset="0.2982" style="stop-color:#FFE200"/>
		<stop  offset="0.3791" style="stop-color:#FFD900"/>
		<stop  offset="0.5092" style="stop-color:#FFC200"/>
		<stop  offset="0.6724" style="stop-color:#FF9B00"/>
		<stop  offset="0.8604" style="stop-color:#FF6600"/>
		<stop  offset="0.9258" style="stop-color:#FF5200"/>
	</linearGradient>
	
		<path style="fill:url(#SVGID_00000077289829952790328920000008883660371734838400_);stroke:#231F20;stroke-linecap:round;stroke-linejoin:round;stroke-miterlimit:10;" d="
		M556.47,392.09L658.09,127.6C626.61,114.28,571.21,95.53,500,95.53c-34.18,0-92.51,4.32-158.09,32.07
		c38.21,85.84,76.42,171.67,114.63,257.51"/>
	
		<linearGradient id="SVGID_00000009586904394485777740000008433997066878892958_" gradientUnits="userSpaceOnUse" x1="691.4913" y1="508.49" x2="924.0817" y2="384.3944">
		<stop  offset="0" style="stop-color:#FFFFFF"/>
		<stop  offset="0.2561" style="stop-color:#FFE200"/>
		<stop  offset="0.3423" style="stop-color:#FFD900"/>
		<stop  offset="0.4812" style="stop-color:#FFC200"/>
		<stop  offset="0.6553" style="stop-color:#FF9B00"/>
		<stop  offset="0.856" style="stop-color:#FF6600"/>
		<stop  offset="0.9258" style="stop-color:#FF5200"/>
	</linearGradient>
	
		<path style="fill:url(#SVGID_00000009586904394485777740000008433997066878892958_);stroke:#231F20;stroke-linecap:round;stroke-linejoin:round;stroke-miterlimit:10;" d="
		M639.78,438.77L843.5,286.36c16.77,29.63,37.14,73.22,49.31,128.95c10.5,48.12,11.58,90.15,10.01,121.46
		c-66.85,0-133.71,0-200.56,0c-2.76-12.89-8.47-32.05-21.05-52.47C667.25,461.66,650.77,447.07,639.78,438.77z"/>
	<path class="st8" d="M368.7,438.77"/>
	
		<linearGradient id="SVGID_00000008861017975135528580000012527950006238337455_" gradientUnits="userSpaceOnUse" x1="305.747" y1="516.6085" x2="40.7871" y2="397.4518">
		<stop  offset="0" style="stop-color:#FFFFFF"/>
		<stop  offset="0.2982" style="stop-color:#FFE200"/>
		<stop  offset="0.3791" style="stop-color:#FFD900"/>
		<stop  offset="0.5092" style="stop-color:#FFC200"/>
		<stop  offset="0.6724" style="stop-color:#FF9B00"/>
		<stop  offset="0.8604" style="stop-color:#FF6600"/>
		<stop  offset="0.9258" style="stop-color:#FF5200"/>
	</linearGradient>
	
		<path style="fill:url(#SVGID_00000008861017975135528580000012527950006238337455_);stroke:#231F20;stroke-linecap:round;stroke-linejoin:round;stroke-miterlimit:10;" d="
		M306.21,558.11L97.93,544.28c-4.59-25.48-8.48-64.23-1.09-110.33c8.27-51.61,27.17-90.56,40.89-114.03
		c76.99,39.62,153.98,79.23,230.97,118.85c-11.64,11.94-26.65,29.86-39.59,54.36C315.79,518.34,309.44,541.49,306.21,558.11z"/>
</g>
<g id="Shadows" class="st10">
</g>
<g id="Outline">
	<path class="st11" d="M904.47,500c0,44.53-7.19,87.37-20.5,127.44c-14.17,42.72-35.27,82.28-61.96,117.34
		c-15.81,20.76-33.57,39.95-53.03,57.28C697.51,865.76,603.27,904.47,500,904.47c-98.97,0-189.63-35.54-259.92-94.58h-0.01
		c-23.85-20.03-45.36-42.76-64.05-67.73c-21.49-28.7-39.25-60.34-52.57-94.21C105.43,602.13,95.53,552.22,95.53,500
		C95.53,276.62,276.62,95.53,500,95.53S904.47,276.62,904.47,500z"/>
	<path class="st11" d="M883.97,627.44c-14.17,42.72-35.27,82.28-61.96,117.34c-15.81,20.76-33.57,39.95-53.03,57.28
		C697.51,865.76,603.27,904.47,500,904.47c-98.97,0-189.63-35.54-259.92-94.58h-0.01c-23.85-20.03-45.36-42.76-64.05-67.73
		c-21.49-28.7-39.25-60.34-52.57-94.21c3.07-2.26,7.51-5.41,13.02-8.9c11.05-6.98,52.19-32.99,98.69-34.21
		c28.89-0.76,37.42,8.64,75.24,19c10.47,2.87,23.2,5.81,39.23,8.63c15.72,2.77,28.66,4.37,36.84,5.27
		c40.82,0.66,72.28-5.14,93.42-10.53c34.95-8.91,42.86-17.02,67.11-15.79c30.08,1.52,39.32,15.08,75,22.37
		c26.51,5.41,49.36,3.64,64.47,1.32c3.22-0.73,6.38-1.47,9.48-2.21c35.18-8.32,62.99-16.54,82.63-22.79
		c21.34-6.8,35.82-12.16,55.26-9.22C857,604.41,873.96,617.71,883.97,627.44z"/>
	<path class="st11" d="M822.01,744.78c-15.81,20.76-33.57,39.95-53.03,57.28C697.51,865.76,603.27,904.47,500,904.47
		c-98.97,0-189.63-35.54-259.92-94.58h-0.01c-23.85-20.03-45.36-42.76-64.05-67.73l-0.07-1.79c16.35-13.65,41.58-30.56,75-36.84
		c43.26-8.14,73.83,6.51,109.21,14.47c68.64,15.44,112.52-3.98,172.37-13.16c64.02-9.81,158.77-9.81,289.47,36.84
		C822,742.71,822.01,743.75,822.01,744.78z"/>
	<path class="st11" d="M702.26,583.13c0,17.19-2.19,33.87-6.31,49.77c-3.1,0.74-6.26,1.48-9.48,2.21
		c-15.11,2.32-37.96,4.09-64.47-1.32c-35.68-7.29-44.92-20.85-75-22.37c-24.25-1.23-32.16,6.88-67.11,15.79
		c-21.14,5.39-52.6,11.19-93.42,10.53c-8.18-0.9-21.12-2.5-36.84-5.27c-16.03-2.82-28.76-5.76-39.23-8.63
		c-2.75-13.14-4.19-26.75-4.19-40.71c0-109.37,88.66-198.02,198.03-198.02C613.6,385.11,702.26,473.76,702.26,583.13z"/>
	<path class="st11" d="M602.26,524.58"/>
	<g>
		<path class="st12" d="M639.77,438.77c2.47-5.13,7.1-8.05,11.32-11.41c7.79-6.08,29.51-23.02,37.63-29.34
			c43.39-33.71,94.86-73.3,138.77-106.51c0,0,12.72-9.55,12.72-9.55c2.43-1.82,5.88-1.33,7.7,1.1c1.83,2.43,1.33,5.89-1.11,7.71
			c0,0-12.75,9.5-12.75,9.5c-44.29,32.77-96.74,70.93-141.36,103.05c-8.34,5.98-30.65,21.99-38.77,27.81
			C649.52,434.21,645.39,437.85,639.77,438.77L639.77,438.77z"/>
	</g>
	<g>
		<path class="st12" d="M702.26,536.77c7.06-1.52,17.78-1.29,25.07-1.57c35.98-0.95,89.23-2.27,125.35-3.02
			c0,0,50.14-0.91,50.14-0.91c3.04-0.06,5.54,2.36,5.6,5.4c0.06,3.04-2.36,5.54-5.4,5.6c0.09,0.02-50.34-0.92-50.34-0.91
			c-36.19-0.75-89.31-2.07-125.35-3.02C720.06,538.05,709.37,538.28,702.26,536.77L702.26,536.77z"/>
	</g>
	<g>
		<path class="st12" d="M554.43,391.3l98.53-265.68c1.06-2.85,4.22-4.3,7.07-3.24c2.85,1.06,4.3,4.22,3.24,7.07
			c0.02-0.02-104.76,263.39-104.77,263.42c-0.45,1.12-1.72,1.67-2.84,1.22C554.56,393.65,554.02,392.41,554.43,391.3L554.43,391.3z"
			/>
	</g>
	<g>
		<path class="st12" d="M455.61,385.52L336.88,129.83c-1.28-2.76-0.08-6.03,2.67-7.31c2.76-1.28,6.03-0.08,7.31,2.67
			c0-0.04,110.58,259.47,110.6,259.5c0.22,0.51-0.02,1.11-0.53,1.33C456.42,386.24,455.84,386.01,455.61,385.52L455.61,385.52z"/>
	</g>
	<g>
		<path class="st12" d="M368.32,439.52l-233.1-114.71c-2.73-1.34-3.85-4.64-2.51-7.36s4.64-3.85,7.36-2.51
			c0.07,0.02,228.91,123.02,229.02,123.07c0.41,0.22,0.57,0.74,0.35,1.15C369.22,439.57,368.73,439.72,368.32,439.52L368.32,439.52z
			"/>
	</g>
	<g>
		<path class="st12" d="M306.06,560.43c0,0-208.49-10.66-208.49-10.66c-3.03-0.16-5.37-2.74-5.21-5.77
			c0.16-3.03,2.74-5.37,5.77-5.21c0.09,0,208.11,17.01,208.24,17.02C309.24,556.08,309.19,560.47,306.06,560.43L306.06,560.43z"/>
	</g>
	<path class="st11" d="M768.98,802.06C697.51,865.76,603.27,904.47,500,904.47c-98.97,0-189.63-35.54-259.92-94.58
		c12.88-8.01,32.45-18.38,57.74-24.86c71.62-18.36,134.86,8.36,156.07,16.36C512.36,823.43,607.66,837.6,768.98,802.06z"/>
</g>
</svg>
